<?xml version="1.0" encoding="UTF-8"?>
<svg width="2000px" height="2000px" viewBox="0 0 2000 2000" version="1.1" xmlns="http://www.w3.org/2000/svg" xmlns:xlink="http://www.w3.org/1999/xlink">
    <!-- Generator: Sketch 53.2 (72643) - https://sketchapp.com -->
    <title>Artboard</title>
    <desc>Created with Sketch.</desc>
    <g id="Artboard" stroke="none" stroke-width="1" fill="none" fill-rule="evenodd">
        <polygon id="Path" fill="#007989" points="0.474158369 867.384701 496.917971 656.858385 856.330014 593.321164 1200.56899 619.399874 1579.89569 564.871662 2000 991.140035 1677.57231 1190.76071 1200.56899 736.516991 1258.89047 1275.1609 1495.02134 1831.34867 1258.89047 1916.22301 1067.33049 1379.9499 1000.23708 1379.9499 832.147937 1952.25905 537.221432 1881.60945 808.914177 1275.1609 832.147937 765.440652 123.755334 1224.42595 58.3214794 1190.76071"></polygon>
        <path d="M822.662936,601.856015 C817.059917,318.258211 874.38916,135.707239 994.650668,54.2030985 C1055.51875,12.9513205 1130.25663,156.305148 1177.96269,295.07555 C1209.76674,387.589151 1217.31627,495.697259 1200.61128,619.399874 L822.662936,601.856015 Z" id="Path-2" fill="#FD58A3"></path>
        <circle id="Oval" fill="#007989" cx="965.386439" cy="263.781098" r="27.5011854"></circle>
        <circle id="Oval" fill="#007989" cx="1061.16643" cy="263.781098" r="27.5011854"></circle>
        <path d="M942.626837,423.09831 C954.954955,477.468469 974.158369,504.653549 1000.23708,504.653549 C1026.31579,504.653549 1046.62557,450.757548 1061.16643,342.965545" id="Path-3" stroke="#A73083" stroke-width="36.9843528" stroke-linecap="round"></path>
    </g>
</svg>